<svg viewBox="0 0 400 250" xmlns="http://www.w3.org/2000/svg" role="img" aria-label="Hotel Centre Point Korba website preview illustration">
  <defs>
    <linearGradient id="bgHotel" x1="0" y1="0" x2="1" y2="1">
      <stop offset="0" stop-color="#232323"/>
      <stop offset="1" stop-color="#141414"/>
    </linearGradient>
    <radialGradient id="glowHotel" cx="0.5" cy="0.15" r="0.65">
      <stop offset="0" stop-color="#e8520a" stop-opacity="0.32"/>
      <stop offset="1" stop-color="#e8520a" stop-opacity="0"/>
    </radialGradient>
  </defs>
  <rect width="400" height="250" fill="url(#bgHotel)"/>
  <rect width="400" height="250" fill="url(#glowHotel)"/>

  <rect x="70" y="42" width="260" height="168" rx="10" fill="#1f1f1f" stroke="#f4f1ec" stroke-opacity="0.18" stroke-width="1.5"/>
  <rect x="70" y="42" width="260" height="24" rx="10" fill="#2c2c2c"/>
  <circle cx="85" cy="54" r="3.5" fill="#e8520a"/>
  <circle cx="97" cy="54" r="3.5" fill="#f4f1ec" opacity="0.35"/>
  <circle cx="109" cy="54" r="3.5" fill="#f4f1ec" opacity="0.35"/>

  <rect x="168" y="90" width="64" height="72" rx="3" fill="none" stroke="#f4f1ec" stroke-width="2" opacity="0.55"/>
  <rect x="178" y="100" width="10" height="10" fill="#e8520a" opacity="0.85"/>
  <rect x="195" y="100" width="10" height="10" fill="#f4f1ec" opacity="0.3"/>
  <rect x="212" y="100" width="10" height="10" fill="#f4f1ec" opacity="0.3"/>
  <rect x="178" y="118" width="10" height="10" fill="#f4f1ec" opacity="0.3"/>
  <rect x="195" y="118" width="10" height="10" fill="#e8520a" opacity="0.85"/>
  <rect x="212" y="118" width="10" height="10" fill="#f4f1ec" opacity="0.3"/>
  <rect x="178" y="136" width="10" height="10" fill="#f4f1ec" opacity="0.3"/>
  <rect x="195" y="136" width="10" height="10" fill="#f4f1ec" opacity="0.3"/>
  <rect x="212" y="136" width="10" height="10" fill="#e8520a" opacity="0.85"/>
  <rect x="192" y="150" width="16" height="12" fill="#141414" stroke="#f4f1ec" stroke-width="1.5" opacity="0.6"/>
  <path d="M150 162 H250" stroke="#f4f1ec" stroke-width="2" opacity="0.35"/>
  <rect x="100" y="178" width="90" height="8" rx="3" fill="#f4f1ec" opacity="0.22"/>
  <rect x="100" y="192" width="140" height="8" rx="3" fill="#f4f1ec" opacity="0.16"/>
</svg>